<svg width="1173" height="93" viewBox="0 0 1173 93" fill="none" xmlns="http://www.w3.org/2000/svg">
<g clip-path="url(#clip0_63_687)">
<g filter="url(#filter0_d_63_687)">
<path d="M62.7677 63.45V37.3391H73.1214C74.8863 37.3391 76.3309 37.6957 77.4551 38.4089C78.5914 39.11 79.4316 40.0106 79.9755 41.1107C80.5316 42.2107 80.8096 43.347 80.8096 44.5196C80.8096 45.9581 80.4651 47.179 79.7761 48.1824C79.0991 49.1857 78.1744 49.8627 77.0018 50.2132V49.3066C78.6458 49.6813 79.8909 50.461 80.7371 51.6457C81.5954 52.8304 82.0245 54.1782 82.0245 55.6893C82.0245 57.2366 81.7284 58.5905 81.136 59.751C80.5437 60.9115 79.6613 61.8181 78.4887 62.4709C77.3282 63.1236 75.8897 63.45 74.1731 63.45H62.7677ZM67.1921 59.3339H73.6291C74.3907 59.3339 75.0737 59.1828 75.6781 58.8806C76.2825 58.5663 76.754 58.1311 77.0925 57.5751C77.443 57.0069 77.6183 56.336 77.6183 55.5623C77.6183 54.8612 77.4672 54.2326 77.165 53.6766C76.8628 53.1205 76.4216 52.6793 75.8413 52.3529C75.2611 52.0144 74.566 51.8452 73.7561 51.8452H67.1921V59.3339ZM67.1921 47.7653H73.067C73.6956 47.7653 74.2577 47.6444 74.7534 47.4027C75.249 47.1609 75.6419 46.8043 75.932 46.3329C76.2221 45.8614 76.3672 45.2812 76.3672 44.5921C76.3672 43.6855 76.077 42.93 75.4968 42.3256C74.9166 41.7211 74.1066 41.4189 73.067 41.4189H67.1921V47.7653ZM86.0086 63.45V36.7951H90.3785V63.45H86.0086ZM104.459 63.994C102.501 63.994 100.791 63.5528 99.3278 62.6703C97.8651 61.7879 96.7288 60.573 95.9189 59.0257C95.1211 57.4663 94.7221 55.6772 94.7221 53.6584C94.7221 51.6034 95.1332 49.8022 95.9552 48.2549C96.7772 46.7076 97.9195 45.4988 99.3822 44.6284C100.845 43.758 102.537 43.3229 104.459 43.3229C106.43 43.3229 108.146 43.7641 109.609 44.6465C111.072 45.529 112.208 46.7499 113.018 48.3093C113.828 49.8566 114.233 51.6397 114.233 53.6584C114.233 55.6893 113.822 57.4844 113 59.0438C112.19 60.5911 111.054 61.806 109.591 62.6884C108.128 63.5588 106.418 63.994 104.459 63.994ZM104.459 59.896C106.2 59.896 107.494 59.3158 108.34 58.1553C109.186 56.9948 109.609 55.4959 109.609 53.6584C109.609 51.7605 109.18 50.2495 108.322 49.1253C107.463 47.989 106.176 47.4208 104.459 47.4208C103.287 47.4208 102.32 47.6868 101.558 48.2186C100.809 48.7384 100.253 49.4698 99.8899 50.4127C99.5273 51.3435 99.346 52.4254 99.346 53.6584C99.346 55.5563 99.7751 57.0734 100.633 58.2097C101.504 59.3339 102.779 59.896 104.459 59.896ZM126.877 63.994C124.919 63.994 123.208 63.5528 121.746 62.6703C120.283 61.7879 119.147 60.573 118.337 59.0257C117.539 57.4663 117.14 55.6772 117.14 53.6584C117.14 51.6034 117.551 49.8022 118.373 48.2549C119.195 46.7076 120.337 45.4988 121.8 44.6284C123.263 43.758 124.955 43.3229 126.877 43.3229C128.848 43.3229 130.564 43.7641 132.027 44.6465C133.49 45.529 134.626 46.7499 135.436 48.3093C136.246 49.8566 136.651 51.6397 136.651 53.6584C136.651 55.6893 136.24 57.4844 135.418 59.0438C134.608 60.5911 133.471 61.806 132.009 62.6884C130.546 63.5588 128.835 63.994 126.877 63.994ZM126.877 59.896C128.618 59.896 129.911 59.3158 130.758 58.1553C131.604 56.9948 132.027 55.4959 132.027 53.6584C132.027 51.7605 131.598 50.2495 130.739 49.1253C129.881 47.989 128.594 47.4208 126.877 47.4208C125.705 47.4208 124.738 47.6868 123.976 48.2186C123.226 48.7384 122.67 49.4698 122.308 50.4127C121.945 51.3435 121.764 52.4254 121.764 53.6584C121.764 55.5563 122.193 57.0734 123.051 58.2097C123.922 59.3339 125.197 59.896 126.877 59.896ZM164.164 63.45V51.555C164.164 50.2132 163.831 49.1676 163.166 48.4181C162.502 47.6565 161.601 47.2758 160.465 47.2758C159.764 47.2758 159.135 47.4389 158.579 47.7653C158.023 48.0796 157.582 48.5511 157.255 49.1797C156.929 49.7962 156.766 50.5336 156.766 51.3918L154.825 50.2495C154.813 48.8956 155.116 47.7049 155.732 46.6774C156.361 45.6378 157.207 44.8279 158.271 44.2476C159.334 43.6674 160.519 43.3773 161.825 43.3773C163.988 43.3773 165.645 44.03 166.793 45.3356C167.953 46.629 168.534 48.3335 168.534 50.449V63.45H164.164ZM140.609 63.45V43.8668H144.472V49.9412H145.016V63.45H140.609ZM152.414 63.45V51.6094C152.414 50.2435 152.081 49.1797 151.416 48.4181C150.752 47.6565 149.845 47.2758 148.697 47.2758C147.584 47.2758 146.69 47.6565 146.013 48.4181C145.348 49.1797 145.016 50.1709 145.016 51.3918L143.057 50.0863C143.057 48.817 143.372 47.6747 144 46.6592C144.629 45.6438 145.475 44.846 146.539 44.2657C147.615 43.6734 148.817 43.3773 150.147 43.3773C151.61 43.3773 152.831 43.6915 153.81 44.3201C154.801 44.9367 155.539 45.7828 156.022 46.8587C156.518 47.9225 156.766 49.1253 156.766 50.4671V63.45H152.414Z" fill="white"/>
</g>
<path d="M27 49.45H41.3176C46.201 49.45 50.1597 53.4088 50.1597 58.2921C50.1597 63.1755 46.201 67.1343 41.3176 67.1343H27V49.45Z" fill="white"/>
<path d="M27 33.9764H36.4795C40.1421 33.9764 43.1111 36.9454 43.1111 40.608C43.1111 44.2705 40.1421 47.2395 36.4795 47.2395H27V33.9764Z" fill="white"/>
<g clip-path="url(#clip1_63_687)">
<g clip-path="url(#clip2_63_687)">
<path d="M237.34 35.6928C237.302 35.6207 237.279 35.5418 237.272 35.4609C237.265 35.3799 237.275 35.2984 237.299 35.2209C237.324 35.1435 237.363 35.0717 237.416 35.0095C237.468 34.9474 237.532 34.8962 237.604 34.8588C239.819 33.7328 242.278 33.1756 244.762 33.2374C247.245 33.2991 249.674 33.9779 251.829 35.2126C251.9 35.2532 251.962 35.3075 252.012 35.3722C252.061 35.4369 252.098 35.5108 252.119 35.5897C252.139 35.6685 252.145 35.7507 252.134 35.8315C252.123 35.9123 252.096 35.9902 252.054 36.0605L244.933 48.2818C244.879 48.3754 244.801 48.4531 244.707 48.507C244.613 48.5609 244.507 48.5892 244.399 48.589H244.383C244.272 48.5861 244.164 48.5535 244.07 48.4947C243.976 48.4359 243.9 48.353 243.848 48.2546L237.34 35.6928ZM244.017 51.8484V51.8471L237.508 39.2853C237.432 39.1399 237.302 39.0303 237.146 38.9804C236.99 38.9306 236.82 38.9445 236.674 39.0192C234.939 39.9087 233.397 41.132 232.137 42.619C230.876 44.106 229.921 45.8273 229.327 47.6842C228.734 49.541 228.512 51.4969 228.676 53.4395C228.84 55.3822 229.386 57.2733 230.283 59.0043C231.18 60.7354 232.409 62.2723 233.902 63.5269C235.394 64.7815 237.119 65.729 238.978 66.3151C240.838 66.9013 242.794 67.1144 244.736 66.9424C246.678 66.7703 248.567 66.2164 250.294 65.3125C250.44 65.2366 250.549 65.1063 250.598 64.9501C250.647 64.794 250.633 64.6247 250.558 64.4791L244.017 51.8484ZM251.647 63.7219L251.696 63.821C251.771 63.9671 251.9 64.0782 252.056 64.1306C252.119 64.1518 252.187 64.1602 252.254 64.1554C252.352 64.1527 252.448 64.1317 252.539 64.0935C252.764 63.9817 252.983 63.8577 253.195 63.7219C253.825 63.3564 254.426 62.9422 254.991 62.4832H251.003L251.647 63.7219ZM250.359 61.2446H256.341C256.726 60.8581 257.082 60.4441 257.406 60.006H249.715L250.359 61.2446ZM249.083 58.7673H258.286C258.54 58.3696 258.767 57.9559 258.967 57.5287H248.439L249.083 58.7673ZM247.795 56.29H259.512C259.677 55.8857 259.817 55.4721 259.933 55.0514H247.151L247.795 56.29ZM246.506 53.8127H260.243C260.317 53.404 260.379 52.9952 260.416 52.5741H245.875L246.506 53.8127ZM253.146 38.1563C253.076 38.1131 252.998 38.0852 252.917 38.0745C252.836 38.0638 252.753 38.0706 252.675 38.0944C252.595 38.1127 252.519 38.1475 252.453 38.1965C252.387 38.2456 252.332 38.3078 252.291 38.3793L251.956 38.9491H254.347C253.961 38.6635 253.56 38.3989 253.146 38.1563ZM255.846 40.1877H251.238L250.52 41.4263H257.023C256.656 40.9897 256.263 40.5761 255.846 40.1877ZM257.951 42.665H249.789L249.07 43.9036H258.707C258.484 43.4741 258.231 43.0603 257.951 42.665ZM259.302 45.1423H248.352L247.634 46.3809H259.785C259.647 45.9592 259.486 45.5456 259.302 45.1423ZM260.132 47.6195H246.903L246.184 48.8582H260.354C260.305 48.4412 260.231 48.0275 260.132 47.6195ZM260.478 50.0968H245.466L245.169 50.6047C245.115 50.6941 245.086 50.796 245.083 50.9003C245.081 51.0046 245.106 51.1076 245.156 51.1992L245.231 51.3355H260.503C260.515 51.2116 260.515 51.0754 260.515 50.9515C260.515 50.6666 260.503 50.3817 260.478 50.0968Z" fill="white"/>
<path d="M237.055 38.407C236.828 37.9767 236.294 37.8099 235.877 38.0607C232.577 40.0461 230.111 43.182 228.968 46.8808C227.738 50.861 228.139 55.1669 230.083 58.8512C232.028 62.5356 235.356 65.2967 239.336 66.5271C243.035 67.6705 247.015 67.4049 250.516 65.801C250.958 65.5985 251.122 65.0632 250.895 64.6329L243.975 51.52L237.055 38.407Z" fill="white"/>
</g>
<path d="M286.421 52.9909C286.117 54.0949 285.629 55.0069 284.957 55.7269C284.285 56.4309 283.485 56.9509 282.557 57.2869C281.629 57.6069 280.605 57.7669 279.485 57.7669C277.885 57.7669 276.501 57.4469 275.333 56.8069C274.165 56.1509 273.269 55.2149 272.645 53.9989C272.021 52.7829 271.709 51.3189 271.709 49.6069C271.709 47.8949 272.021 46.4309 272.645 45.2149C273.269 43.9989 274.165 43.0709 275.333 42.4309C276.501 41.7749 277.877 41.4469 279.461 41.4469C280.565 41.4469 281.581 41.6069 282.509 41.9269C283.437 42.2309 284.221 42.7029 284.861 43.3429C285.501 43.9829 285.957 44.8069 286.229 45.8149L282.605 47.2789C282.381 46.2869 282.013 45.6069 281.501 45.2389C281.005 44.8709 280.373 44.6869 279.605 44.6869C278.853 44.6869 278.197 44.8709 277.637 45.2389C277.093 45.6069 276.669 46.1589 276.365 46.8949C276.077 47.6149 275.933 48.5189 275.933 49.6069C275.933 50.6789 276.069 51.5829 276.341 52.3189C276.613 53.0549 277.021 53.6069 277.565 53.9749C278.125 54.3429 278.813 54.5269 279.629 54.5269C280.397 54.5269 281.045 54.3189 281.573 53.9029C282.117 53.4709 282.485 52.8149 282.677 51.9349L286.421 52.9909ZM294.285 57.7669C292.957 57.7669 291.805 57.5189 290.829 57.0229C289.869 56.5269 289.125 55.8149 288.597 54.8869C288.069 53.9589 287.805 52.8389 287.805 51.5269C287.805 50.2149 288.069 49.0949 288.597 48.1669C289.125 47.2389 289.861 46.5269 290.805 46.0309C291.765 45.5349 292.861 45.2869 294.093 45.2869C295.357 45.2869 296.429 45.5349 297.309 46.0309C298.205 46.5109 298.885 47.1829 299.349 48.0469C299.813 48.8949 300.045 49.8709 300.045 50.9749C300.045 51.2629 300.037 51.5509 300.021 51.8389C300.005 52.1269 299.981 52.3669 299.949 52.5589H290.445V50.3749H298.149L296.205 51.1189C296.205 50.1589 296.029 49.4229 295.677 48.9109C295.341 48.3989 294.813 48.1429 294.093 48.1429C293.581 48.1429 293.141 48.2629 292.773 48.5029C292.421 48.7429 292.149 49.1189 291.957 49.6309C291.781 50.1429 291.693 50.7989 291.693 51.5989C291.693 52.3829 291.797 53.0229 292.005 53.5189C292.213 53.9989 292.509 54.3509 292.893 54.5749C293.277 54.7829 293.741 54.8869 294.285 54.8869C294.893 54.8869 295.373 54.7669 295.725 54.5269C296.093 54.2869 296.365 53.9509 296.541 53.5189L299.805 54.5989C299.581 55.2869 299.189 55.8709 298.629 56.3509C298.085 56.8149 297.429 57.1669 296.661 57.4069C295.909 57.6469 295.117 57.7669 294.285 57.7669ZM302.328 57.5269V45.5269H305.976L306.096 47.8549C306.48 47.0069 307.016 46.3669 307.704 45.9349C308.408 45.5029 309.216 45.2869 310.128 45.2869C311.024 45.2869 311.8 45.4869 312.456 45.8869C313.112 46.2869 313.6 46.8789 313.92 47.6629C314.176 47.1349 314.504 46.6949 314.904 46.3429C315.32 45.9909 315.792 45.7269 316.32 45.5509C316.848 45.3749 317.392 45.2869 317.952 45.2869C318.752 45.2869 319.456 45.4469 320.064 45.7669C320.672 46.0709 321.152 46.5429 321.504 47.1829C321.872 47.8069 322.056 48.5909 322.056 49.5349V57.5269H317.976V50.4709C317.976 49.7029 317.824 49.1669 317.52 48.8629C317.232 48.5589 316.84 48.4069 316.344 48.4069C315.944 48.4069 315.576 48.5109 315.24 48.7189C314.92 48.9109 314.672 49.2069 314.496 49.6069C314.32 50.0069 314.232 50.5109 314.232 51.1189V57.5269H310.152V50.4709C310.152 49.7029 310 49.1669 309.696 48.8629C309.392 48.5589 309 48.4069 308.52 48.4069C308.152 48.4069 307.8 48.5029 307.464 48.6949C307.144 48.8869 306.888 49.1909 306.696 49.6069C306.504 50.0069 306.408 50.5349 306.408 51.1909V57.5269H302.328ZM330.777 57.7669C329.449 57.7669 328.297 57.5189 327.321 57.0229C326.361 56.5269 325.617 55.8149 325.089 54.8869C324.561 53.9589 324.297 52.8389 324.297 51.5269C324.297 50.2149 324.561 49.0949 325.089 48.1669C325.617 47.2389 326.353 46.5269 327.297 46.0309C328.257 45.5349 329.353 45.2869 330.585 45.2869C331.849 45.2869 332.921 45.5349 333.801 46.0309C334.697 46.5109 335.377 47.1829 335.841 48.0469C336.305 48.8949 336.537 49.8709 336.537 50.9749C336.537 51.2629 336.529 51.5509 336.513 51.8389C336.497 52.1269 336.473 52.3669 336.441 52.5589H326.937V50.3749H334.641L332.697 51.1189C332.697 50.1589 332.521 49.4229 332.169 48.9109C331.833 48.3989 331.305 48.1429 330.585 48.1429C330.073 48.1429 329.633 48.2629 329.265 48.5029C328.913 48.7429 328.641 49.1189 328.449 49.6309C328.273 50.1429 328.185 50.7989 328.185 51.5989C328.185 52.3829 328.289 53.0229 328.497 53.5189C328.705 53.9989 329.001 54.3509 329.385 54.5749C329.769 54.7829 330.233 54.8869 330.777 54.8869C331.385 54.8869 331.865 54.7669 332.217 54.5269C332.585 54.2869 332.857 53.9509 333.033 53.5189L336.297 54.5989C336.073 55.2869 335.681 55.8709 335.121 56.3509C334.577 56.8149 333.921 57.1669 333.153 57.4069C332.401 57.6469 331.609 57.7669 330.777 57.7669ZM338.82 57.5269V45.5269H342.468L342.684 49.6549L342.228 49.1989C342.388 48.3349 342.668 47.6149 343.068 47.0389C343.484 46.4629 343.996 46.0309 344.604 45.7429C345.228 45.4389 345.924 45.2869 346.692 45.2869C347.524 45.2869 348.244 45.4469 348.852 45.7669C349.476 46.0869 349.964 46.5589 350.316 47.1829C350.668 47.8069 350.844 48.5909 350.844 49.5349V57.5269H346.764V50.6149C346.764 49.7829 346.604 49.2069 346.284 48.8869C345.964 48.5669 345.556 48.4069 345.06 48.4069C344.676 48.4069 344.316 48.5029 343.98 48.6949C343.644 48.8709 343.38 49.1589 343.188 49.5589C342.996 49.9589 342.9 50.4949 342.9 51.1669V57.5269H338.82ZM358.648 41.7109V53.2549C358.648 53.8309 358.784 54.2469 359.056 54.5029C359.344 54.7429 359.736 54.8629 360.232 54.8629C360.616 54.8629 360.944 54.8229 361.216 54.7429C361.504 54.6469 361.76 54.5109 361.984 54.3349L362.416 56.8549C362.016 57.1429 361.512 57.3669 360.904 57.5269C360.296 57.6869 359.672 57.7669 359.032 57.7669C358.12 57.7669 357.328 57.6389 356.656 57.3829C356 57.1269 355.488 56.7189 355.12 56.1589C354.768 55.5989 354.584 54.8549 354.568 53.9269V42.8389L358.648 41.7109ZM362.224 45.5269V48.4309H352.504V45.5269H362.224Z" fill="white"/>
</g>
<path d="M466.15 63.45V37.3391H476.504C478.269 37.3391 479.713 37.6957 480.837 38.4089C481.974 39.11 482.814 40.0106 483.358 41.1107C483.914 42.2107 484.192 43.347 484.192 44.5196C484.192 45.9581 483.847 47.179 483.158 48.1824C482.481 49.1857 481.557 49.8627 480.384 50.2132V49.3066C482.028 49.6813 483.273 50.461 484.119 51.6457C484.978 52.8304 485.407 54.1782 485.407 55.6893C485.407 57.2366 485.111 58.5905 484.518 59.751C483.926 60.9115 483.044 61.8181 481.871 62.4709C480.711 63.1236 479.272 63.45 477.555 63.45H466.15ZM470.574 59.3339H477.012C477.773 59.3339 478.456 59.1828 479.06 58.8806C479.665 58.5663 480.136 58.1311 480.475 57.5751C480.825 57.0069 481.001 56.336 481.001 55.5623C481.001 54.8612 480.85 54.2326 480.547 53.6766C480.245 53.1205 479.804 52.6793 479.224 52.3529C478.643 52.0144 477.948 51.8452 477.138 51.8452H470.574V59.3339ZM470.574 47.7653H476.449C477.078 47.7653 477.64 47.6444 478.136 47.4027C478.631 47.1609 479.024 46.8043 479.314 46.3329C479.604 45.8614 479.75 45.2812 479.75 44.5921C479.75 43.6855 479.459 42.93 478.879 42.3256C478.299 41.7211 477.489 41.4189 476.449 41.4189H470.574V47.7653ZM489.391 63.45V36.7951H493.761V63.45H489.391ZM507.842 63.994C505.883 63.994 504.173 63.5528 502.71 62.6703C501.247 61.7879 500.111 60.573 499.301 59.0257C498.503 57.4663 498.105 55.6772 498.105 53.6584C498.105 51.6034 498.516 49.8022 499.338 48.2549C500.16 46.7076 501.302 45.4988 502.765 44.6284C504.227 43.758 505.92 43.3229 507.842 43.3229C509.812 43.3229 511.529 43.7641 512.991 44.6465C514.454 45.529 515.59 46.7499 516.4 48.3093C517.21 49.8566 517.615 51.6397 517.615 53.6584C517.615 55.6893 517.204 57.4844 516.382 59.0438C515.572 60.5911 514.436 61.806 512.973 62.6884C511.511 63.5588 509.8 63.994 507.842 63.994ZM507.842 59.896C509.582 59.896 510.876 59.3158 511.722 58.1553C512.568 56.9948 512.991 55.4959 512.991 53.6584C512.991 51.7605 512.562 50.2495 511.704 49.1253C510.846 47.989 509.558 47.4208 507.842 47.4208C506.669 47.4208 505.702 47.6868 504.94 48.2186C504.191 48.7384 503.635 49.4698 503.272 50.4127C502.91 51.3435 502.728 52.4254 502.728 53.6584C502.728 55.5563 503.157 57.0734 504.016 58.2097C504.886 59.3339 506.161 59.896 507.842 59.896ZM530.26 63.994C528.301 63.994 526.591 63.5528 525.128 62.6703C523.665 61.7879 522.529 60.573 521.719 59.0257C520.921 57.4663 520.522 55.6772 520.522 53.6584C520.522 51.6034 520.933 49.8022 521.755 48.2549C522.577 46.7076 523.72 45.4988 525.182 44.6284C526.645 43.758 528.337 43.3229 530.26 43.3229C532.23 43.3229 533.946 43.7641 535.409 44.6465C536.872 45.529 538.008 46.7499 538.818 48.3093C539.628 49.8566 540.033 51.6397 540.033 53.6584C540.033 55.6893 539.622 57.4844 538.8 59.0438C537.99 60.5911 536.854 61.806 535.391 62.6884C533.928 63.5588 532.218 63.994 530.26 63.994ZM530.26 59.896C532 59.896 533.294 59.3158 534.14 58.1553C534.986 56.9948 535.409 55.4959 535.409 53.6584C535.409 51.7605 534.98 50.2495 534.122 49.1253C533.263 47.989 531.976 47.4208 530.26 47.4208C529.087 47.4208 528.12 47.6868 527.358 48.2186C526.609 48.7384 526.053 49.4698 525.69 50.4127C525.327 51.3435 525.146 52.4254 525.146 53.6584C525.146 55.5563 525.575 57.0734 526.434 58.2097C527.304 59.3339 528.579 59.896 530.26 59.896ZM567.546 63.45V51.555C567.546 50.2132 567.214 49.1676 566.549 48.4181C565.884 47.6565 564.983 47.2758 563.847 47.2758C563.146 47.2758 562.517 47.4389 561.961 47.7653C561.405 48.0796 560.964 48.5511 560.638 49.1797C560.311 49.7962 560.148 50.5336 560.148 51.3918L558.208 50.2495C558.196 48.8956 558.498 47.7049 559.114 46.6774C559.743 45.6378 560.589 44.8279 561.653 44.2476C562.717 43.6674 563.901 43.3773 565.207 43.3773C567.371 43.3773 569.027 44.03 570.175 45.3356C571.336 46.629 571.916 48.3335 571.916 50.449V63.45H567.546ZM543.992 63.45V43.8668H547.854V49.9412H548.398V63.45H543.992ZM555.796 63.45V51.6094C555.796 50.2435 555.464 49.1797 554.799 48.4181C554.134 47.6565 553.227 47.2758 552.079 47.2758C550.967 47.2758 550.072 47.6565 549.395 48.4181C548.73 49.1797 548.398 50.1709 548.398 51.3918L546.44 50.0863C546.44 48.817 546.754 47.6747 547.383 46.6592C548.011 45.6438 548.857 44.846 549.921 44.2657C550.997 43.6734 552.2 43.3773 553.53 43.3773C554.992 43.3773 556.213 43.6915 557.192 44.3201C558.184 44.9367 558.921 45.7828 559.405 46.8587C559.9 47.9225 560.148 49.1253 560.148 50.4671V63.45H555.796Z" fill="white"/>
<path d="M430.382 49.45H444.7C449.583 49.45 453.542 53.4088 453.542 58.2921C453.542 63.1755 449.583 67.1343 444.7 67.1343H430.382V49.45Z" fill="white"/>
<path d="M430.382 33.9764H439.862C443.524 33.9764 446.493 36.9454 446.493 40.608C446.493 44.2705 443.524 47.2395 439.862 47.2395H430.382V33.9764Z" fill="white"/>
<g clip-path="url(#clip3_63_687)" filter="url(#filter1_d_63_687)">
<g clip-path="url(#clip4_63_687)">
<path d="M641.082 35.6928C641.045 35.6207 641.022 35.5418 641.015 35.4609C641.008 35.3799 641.017 35.2984 641.042 35.2209C641.067 35.1435 641.106 35.0717 641.159 35.0095C641.211 34.9474 641.275 34.8962 641.347 34.8588C643.561 33.7328 646.021 33.1756 648.504 33.2374C650.988 33.2991 653.417 33.9779 655.572 35.2126C655.643 35.2532 655.705 35.3075 655.755 35.3722C655.804 35.4369 655.84 35.5108 655.861 35.5897C655.882 35.6685 655.887 35.7507 655.876 35.8315C655.865 35.9123 655.839 35.9902 655.797 36.0605L648.676 48.2818C648.622 48.3754 648.544 48.4531 648.45 48.507C648.356 48.5609 648.25 48.5892 648.142 48.589H648.126C648.015 48.5861 647.907 48.5535 647.813 48.4947C647.719 48.4359 647.642 48.353 647.591 48.2546L641.082 35.6928ZM647.76 51.8484V51.8471L641.25 39.2853C641.175 39.1399 641.045 39.0303 640.889 38.9804C640.733 38.9306 640.563 38.9445 640.417 39.0192C638.682 39.9087 637.14 41.132 635.88 42.619C634.619 44.106 633.664 45.8273 633.07 47.6842C632.476 49.541 632.255 51.4969 632.419 53.4395C632.583 55.3822 633.129 57.2733 634.026 59.0043C634.922 60.7354 636.152 62.2723 637.644 63.5269C639.137 64.7815 640.862 65.729 642.721 66.3151C644.581 66.9013 646.537 67.1144 648.479 66.9424C650.421 66.7703 652.31 66.2164 654.037 65.3125C654.182 65.2366 654.292 65.1063 654.341 64.9501C654.39 64.794 654.376 64.6247 654.301 64.4791L647.76 51.8484ZM655.39 63.7219L655.439 63.821C655.514 63.9671 655.643 64.0782 655.798 64.1306C655.862 64.1518 655.93 64.1602 655.997 64.1554C656.095 64.1527 656.191 64.1317 656.281 64.0935C656.507 63.9817 656.726 63.8577 656.938 63.7219C657.568 63.3564 658.168 62.9422 658.734 62.4832H654.746L655.39 63.7219ZM654.101 61.2446H660.084C660.469 60.8581 660.825 60.4441 661.149 60.006H653.457L654.101 61.2446ZM652.826 58.7673H662.029C662.282 58.3696 662.51 57.9559 662.71 57.5287H652.182L652.826 58.7673ZM651.537 56.29H663.255C663.419 55.8857 663.56 55.4721 663.676 55.0514H650.893L651.537 56.29ZM650.249 53.8127H663.986C664.06 53.404 664.122 52.9952 664.159 52.5741H649.618L650.249 53.8127ZM656.888 38.1563C656.819 38.1131 656.741 38.0852 656.66 38.0745C656.579 38.0638 656.496 38.0706 656.418 38.0944C656.338 38.1127 656.262 38.1475 656.196 38.1965C656.13 38.2456 656.075 38.3078 656.034 38.3793L655.699 38.9491H658.09C657.704 38.6635 657.303 38.3989 656.888 38.1563ZM659.589 40.1877H654.981L654.263 41.4263H660.765C660.399 40.9897 660.006 40.5761 659.589 40.1877ZM661.694 42.665H653.532L652.813 43.9036H662.45C662.226 43.4741 661.974 43.0603 661.694 42.665ZM663.044 45.1423H652.095L651.376 46.3809H663.528C663.39 45.9592 663.229 45.5456 663.044 45.1423ZM663.874 47.6195H650.646L649.927 48.8582H664.097C664.048 48.4412 663.974 48.0275 663.874 47.6195ZM664.221 50.0968H649.209L648.912 50.6047C648.858 50.6941 648.829 50.796 648.826 50.9003C648.824 51.0046 648.849 51.1076 648.899 51.1992L648.974 51.3355H664.246C664.258 51.2116 664.258 51.0754 664.258 50.9515C664.258 50.6666 664.246 50.3817 664.221 50.0968Z" fill="white"/>
<path d="M640.798 38.407C640.571 37.9767 640.036 37.8099 639.62 38.0607C636.32 40.0461 633.854 43.182 632.711 46.8808C631.48 50.861 631.882 55.1669 633.826 58.8512C635.77 62.5356 639.099 65.2967 643.079 66.5271C646.778 67.6705 650.758 67.4049 654.259 65.801C654.701 65.5985 654.865 65.0632 654.638 64.6329L647.718 51.52L640.798 38.407Z" fill="white"/>
</g>
<path d="M690.164 52.9909C689.86 54.0949 689.372 55.0069 688.7 55.7269C688.028 56.4309 687.228 56.9509 686.3 57.2869C685.372 57.6069 684.348 57.7669 683.228 57.7669C681.628 57.7669 680.244 57.4469 679.076 56.8069C677.908 56.1509 677.012 55.2149 676.388 53.9989C675.764 52.7829 675.452 51.3189 675.452 49.6069C675.452 47.8949 675.764 46.4309 676.388 45.2149C677.012 43.9989 677.908 43.0709 679.076 42.4309C680.244 41.7749 681.62 41.4469 683.204 41.4469C684.308 41.4469 685.324 41.6069 686.252 41.9269C687.18 42.2309 687.964 42.7029 688.604 43.3429C689.244 43.9829 689.7 44.8069 689.972 45.8149L686.348 47.2789C686.124 46.2869 685.756 45.6069 685.244 45.2389C684.748 44.8709 684.116 44.6869 683.348 44.6869C682.596 44.6869 681.94 44.8709 681.38 45.2389C680.836 45.6069 680.412 46.1589 680.108 46.8949C679.82 47.6149 679.676 48.5189 679.676 49.6069C679.676 50.6789 679.812 51.5829 680.084 52.3189C680.356 53.0549 680.764 53.6069 681.308 53.9749C681.868 54.3429 682.556 54.5269 683.372 54.5269C684.14 54.5269 684.788 54.3189 685.316 53.9029C685.86 53.4709 686.228 52.8149 686.42 51.9349L690.164 52.9909ZM698.028 57.7669C696.7 57.7669 695.548 57.5189 694.572 57.0229C693.612 56.5269 692.868 55.8149 692.34 54.8869C691.812 53.9589 691.548 52.8389 691.548 51.5269C691.548 50.2149 691.812 49.0949 692.34 48.1669C692.868 47.2389 693.604 46.5269 694.548 46.0309C695.508 45.5349 696.604 45.2869 697.836 45.2869C699.1 45.2869 700.172 45.5349 701.052 46.0309C701.948 46.5109 702.628 47.1829 703.092 48.0469C703.556 48.8949 703.788 49.8709 703.788 50.9749C703.788 51.2629 703.78 51.5509 703.764 51.8389C703.748 52.1269 703.724 52.3669 703.692 52.5589H694.188V50.3749H701.892L699.948 51.1189C699.948 50.1589 699.772 49.4229 699.42 48.9109C699.084 48.3989 698.556 48.1429 697.836 48.1429C697.324 48.1429 696.884 48.2629 696.516 48.5029C696.164 48.7429 695.892 49.1189 695.7 49.6309C695.524 50.1429 695.436 50.7989 695.436 51.5989C695.436 52.3829 695.54 53.0229 695.748 53.5189C695.956 53.9989 696.252 54.3509 696.636 54.5749C697.02 54.7829 697.484 54.8869 698.028 54.8869C698.636 54.8869 699.116 54.7669 699.468 54.5269C699.836 54.2869 700.108 53.9509 700.284 53.5189L703.548 54.5989C703.324 55.2869 702.932 55.8709 702.372 56.3509C701.828 56.8149 701.172 57.1669 700.404 57.4069C699.652 57.6469 698.86 57.7669 698.028 57.7669ZM706.071 57.5269V45.5269H709.719L709.839 47.8549C710.223 47.0069 710.759 46.3669 711.447 45.9349C712.151 45.5029 712.959 45.2869 713.871 45.2869C714.767 45.2869 715.543 45.4869 716.199 45.8869C716.855 46.2869 717.343 46.8789 717.663 47.6629C717.919 47.1349 718.247 46.6949 718.647 46.3429C719.063 45.9909 719.535 45.7269 720.063 45.5509C720.591 45.3749 721.135 45.2869 721.695 45.2869C722.495 45.2869 723.199 45.4469 723.807 45.7669C724.415 46.0709 724.895 46.5429 725.247 47.1829C725.615 47.8069 725.799 48.5909 725.799 49.5349V57.5269H721.719V50.4709C721.719 49.7029 721.567 49.1669 721.263 48.8629C720.975 48.5589 720.583 48.4069 720.087 48.4069C719.687 48.4069 719.319 48.5109 718.983 48.7189C718.663 48.9109 718.415 49.2069 718.239 49.6069C718.063 50.0069 717.975 50.5109 717.975 51.1189V57.5269H713.895V50.4709C713.895 49.7029 713.743 49.1669 713.439 48.8629C713.135 48.5589 712.743 48.4069 712.263 48.4069C711.895 48.4069 711.543 48.5029 711.207 48.6949C710.887 48.8869 710.631 49.1909 710.439 49.6069C710.247 50.0069 710.151 50.5349 710.151 51.1909V57.5269H706.071ZM734.52 57.7669C733.192 57.7669 732.04 57.5189 731.064 57.0229C730.104 56.5269 729.36 55.8149 728.832 54.8869C728.304 53.9589 728.04 52.8389 728.04 51.5269C728.04 50.2149 728.304 49.0949 728.832 48.1669C729.36 47.2389 730.096 46.5269 731.04 46.0309C732 45.5349 733.096 45.2869 734.328 45.2869C735.592 45.2869 736.664 45.5349 737.544 46.0309C738.44 46.5109 739.12 47.1829 739.584 48.0469C740.048 48.8949 740.28 49.8709 740.28 50.9749C740.28 51.2629 740.272 51.5509 740.256 51.8389C740.24 52.1269 740.216 52.3669 740.184 52.5589H730.68V50.3749H738.384L736.44 51.1189C736.44 50.1589 736.264 49.4229 735.912 48.9109C735.576 48.3989 735.048 48.1429 734.328 48.1429C733.816 48.1429 733.376 48.2629 733.008 48.5029C732.656 48.7429 732.384 49.1189 732.192 49.6309C732.016 50.1429 731.928 50.7989 731.928 51.5989C731.928 52.3829 732.032 53.0229 732.24 53.5189C732.448 53.9989 732.744 54.3509 733.128 54.5749C733.512 54.7829 733.976 54.8869 734.52 54.8869C735.128 54.8869 735.608 54.7669 735.96 54.5269C736.328 54.2869 736.6 53.9509 736.776 53.5189L740.04 54.5989C739.816 55.2869 739.424 55.8709 738.864 56.3509C738.32 56.8149 737.664 57.1669 736.896 57.4069C736.144 57.6469 735.352 57.7669 734.52 57.7669ZM742.563 57.5269V45.5269H746.211L746.427 49.6549L745.971 49.1989C746.131 48.3349 746.411 47.6149 746.811 47.0389C747.227 46.4629 747.739 46.0309 748.347 45.7429C748.971 45.4389 749.667 45.2869 750.435 45.2869C751.267 45.2869 751.987 45.4469 752.595 45.7669C753.219 46.0869 753.707 46.5589 754.059 47.1829C754.411 47.8069 754.587 48.5909 754.587 49.5349V57.5269H750.507V50.6149C750.507 49.7829 750.347 49.2069 750.027 48.8869C749.707 48.5669 749.299 48.4069 748.803 48.4069C748.419 48.4069 748.059 48.5029 747.723 48.6949C747.387 48.8709 747.123 49.1589 746.931 49.5589C746.739 49.9589 746.643 50.4949 746.643 51.1669V57.5269H742.563ZM762.391 41.7109V53.2549C762.391 53.8309 762.527 54.2469 762.799 54.5029C763.087 54.7429 763.479 54.8629 763.975 54.8629C764.359 54.8629 764.687 54.8229 764.959 54.7429C765.247 54.6469 765.503 54.5109 765.727 54.3349L766.159 56.8549C765.759 57.1429 765.255 57.3669 764.647 57.5269C764.039 57.6869 763.415 57.7669 762.775 57.7669C761.863 57.7669 761.071 57.6389 760.399 57.3829C759.743 57.1269 759.231 56.7189 758.863 56.1589C758.511 55.5989 758.327 54.8549 758.311 53.9269V42.8389L762.391 41.7109ZM765.967 45.5269V48.4309H756.247V45.5269H765.967Z" fill="white"/>
</g>
<g filter="url(#filter2_d_63_687)">
<path d="M869.532 63.45V37.3391H879.886C881.651 37.3391 883.096 37.6957 884.22 38.4089C885.356 39.11 886.196 40.0106 886.74 41.1107C887.296 42.2107 887.574 43.347 887.574 44.5196C887.574 45.9581 887.23 47.179 886.541 48.1824C885.864 49.1857 884.939 49.8627 883.766 50.2132V49.3066C885.41 49.6813 886.656 50.461 887.502 51.6457C888.36 52.8304 888.789 54.1782 888.789 55.6893C888.789 57.2366 888.493 58.5905 887.901 59.751C887.308 60.9115 886.426 61.8181 885.253 62.4709C884.093 63.1236 882.654 63.45 880.938 63.45H869.532ZM873.957 59.3339H880.394C881.155 59.3339 881.838 59.1828 882.443 58.8806C883.047 58.5663 883.519 58.1311 883.857 57.5751C884.208 57.0069 884.383 56.336 884.383 55.5623C884.383 54.8612 884.232 54.2326 883.93 53.6766C883.627 53.1205 883.186 52.6793 882.606 52.3529C882.026 52.0144 881.331 51.8452 880.521 51.8452H873.957V59.3339ZM873.957 47.7653H879.832C880.46 47.7653 881.022 47.6444 881.518 47.4027C882.014 47.1609 882.407 46.8043 882.697 46.3329C882.987 45.8614 883.132 45.2812 883.132 44.5921C883.132 43.6855 882.842 42.93 882.261 42.3256C881.681 41.7211 880.871 41.4189 879.832 41.4189H873.957V47.7653ZM892.773 63.45V36.7951H897.143V63.45H892.773ZM911.224 63.994C909.266 63.994 907.555 63.5528 906.092 62.6703C904.63 61.7879 903.493 60.573 902.684 59.0257C901.886 57.4663 901.487 55.6772 901.487 53.6584C901.487 51.6034 901.898 49.8022 902.72 48.2549C903.542 46.7076 904.684 45.4988 906.147 44.6284C907.61 43.758 909.302 43.3229 911.224 43.3229C913.194 43.3229 914.911 43.7641 916.374 44.6465C917.836 45.529 918.973 46.7499 919.783 48.3093C920.593 49.8566 920.997 51.6397 920.997 53.6584C920.997 55.6893 920.586 57.4844 919.764 59.0438C918.955 60.5911 917.818 61.806 916.356 62.6884C914.893 63.5588 913.182 63.994 911.224 63.994ZM911.224 59.896C912.965 59.896 914.258 59.3158 915.104 58.1553C915.951 56.9948 916.374 55.4959 916.374 53.6584C916.374 51.7605 915.945 50.2495 915.086 49.1253C914.228 47.989 912.941 47.4208 911.224 47.4208C910.051 47.4208 909.084 47.6868 908.323 48.2186C907.573 48.7384 907.017 49.4698 906.655 50.4127C906.292 51.3435 906.111 52.4254 906.111 53.6584C906.111 55.5563 906.54 57.0734 907.398 58.2097C908.268 59.3339 909.544 59.896 911.224 59.896ZM933.642 63.994C931.684 63.994 929.973 63.5528 928.51 62.6703C927.048 61.7879 925.911 60.573 925.101 59.0257C924.304 57.4663 923.905 55.6772 923.905 53.6584C923.905 51.6034 924.316 49.8022 925.138 48.2549C925.96 46.7076 927.102 45.4988 928.565 44.6284C930.027 43.758 931.72 43.3229 933.642 43.3229C935.612 43.3229 937.329 43.7641 938.791 44.6465C940.254 45.529 941.39 46.7499 942.2 48.3093C943.01 49.8566 943.415 51.6397 943.415 53.6584C943.415 55.6893 943.004 57.4844 942.182 59.0438C941.372 60.5911 940.236 61.806 938.773 62.6884C937.311 63.5588 935.6 63.994 933.642 63.994ZM933.642 59.896C935.383 59.896 936.676 59.3158 937.522 58.1553C938.368 56.9948 938.791 55.4959 938.791 53.6584C938.791 51.7605 938.362 50.2495 937.504 49.1253C936.646 47.989 935.358 47.4208 933.642 47.4208C932.469 47.4208 931.502 47.6868 930.741 48.2186C929.991 48.7384 929.435 49.4698 929.072 50.4127C928.71 51.3435 928.528 52.4254 928.528 53.6584C928.528 55.5563 928.958 57.0734 929.816 58.2097C930.686 59.3339 931.962 59.896 933.642 59.896ZM970.928 63.45V51.555C970.928 50.2132 970.596 49.1676 969.931 48.4181C969.266 47.6565 968.366 47.2758 967.229 47.2758C966.528 47.2758 965.9 47.4389 965.344 47.7653C964.787 48.0796 964.346 48.5511 964.02 49.1797C963.693 49.7962 963.53 50.5336 963.53 51.3918L961.59 50.2495C961.578 48.8956 961.88 47.7049 962.497 46.6774C963.125 45.6378 963.971 44.8279 965.035 44.2476C966.099 43.6674 967.284 43.3773 968.589 43.3773C970.753 43.3773 972.409 44.03 973.558 45.3356C974.718 46.629 975.298 48.3335 975.298 50.449V63.45H970.928ZM947.374 63.45V43.8668H951.236V49.9412H951.78V63.45H947.374ZM959.178 63.45V51.6094C959.178 50.2435 958.846 49.1797 958.181 48.4181C957.516 47.6565 956.61 47.2758 955.461 47.2758C954.349 47.2758 953.455 47.6565 952.778 48.4181C952.113 49.1797 951.78 50.1709 951.78 51.3918L949.822 50.0863C949.822 48.817 950.136 47.6747 950.765 46.6592C951.394 45.6438 952.24 44.846 953.303 44.2657C954.379 43.6734 955.582 43.3773 956.912 43.3773C958.375 43.3773 959.595 43.6915 960.575 44.3201C961.566 44.9367 962.303 45.7828 962.787 46.8587C963.282 47.9225 963.53 49.1253 963.53 50.4671V63.45H959.178Z" fill="white"/>
</g>
<path d="M833.765 49.45H848.082C852.966 49.45 856.924 53.4088 856.924 58.2921C856.924 63.1755 852.966 67.1343 848.082 67.1343H833.765V49.45Z" fill="white"/>
<path d="M833.765 33.9764H843.244C846.907 33.9764 849.876 36.9454 849.876 40.608C849.876 44.2705 846.907 47.2395 843.244 47.2395H833.765V33.9764Z" fill="white"/>
<g clip-path="url(#clip5_63_687)">
<g clip-path="url(#clip6_63_687)">
<path d="M1044.83 35.6928C1044.79 35.6207 1044.76 35.5418 1044.76 35.4609C1044.75 35.3799 1044.76 35.2984 1044.78 35.2209C1044.81 35.1435 1044.85 35.0717 1044.9 35.0095C1044.95 34.9474 1045.02 34.8962 1045.09 34.8588C1047.3 33.7328 1049.76 33.1756 1052.25 33.2374C1054.73 33.2991 1057.16 33.9779 1059.32 35.2126C1059.39 35.2532 1059.45 35.3075 1059.5 35.3722C1059.55 35.4369 1059.58 35.5108 1059.6 35.5897C1059.63 35.6685 1059.63 35.7507 1059.62 35.8315C1059.61 35.9123 1059.58 35.9902 1059.54 36.0605L1052.42 48.2818C1052.36 48.3754 1052.29 48.4531 1052.19 48.507C1052.1 48.5609 1051.99 48.5892 1051.88 48.589H1051.87C1051.76 48.5861 1051.65 48.5535 1051.56 48.4947C1051.46 48.4359 1051.39 48.353 1051.33 48.2546L1044.83 35.6928ZM1051.5 51.8484V51.8471L1044.99 39.2853C1044.92 39.1399 1044.79 39.0303 1044.63 38.9804C1044.48 38.9306 1044.31 38.9445 1044.16 39.0192C1042.43 39.9087 1040.88 41.132 1039.62 42.619C1038.36 44.106 1037.41 45.8273 1036.81 47.6842C1036.22 49.541 1036 51.4969 1036.16 53.4395C1036.33 55.3822 1036.87 57.2733 1037.77 59.0043C1038.67 60.7354 1039.89 62.2723 1041.39 63.5269C1042.88 64.7815 1044.6 65.729 1046.46 66.3151C1048.32 66.9013 1050.28 67.1144 1052.22 66.9424C1054.16 66.7703 1056.05 66.2164 1057.78 65.3125C1057.93 65.2366 1058.03 65.1063 1058.08 64.9501C1058.13 64.794 1058.12 64.6247 1058.04 64.4791L1051.5 51.8484ZM1059.13 63.7219L1059.18 63.821C1059.26 63.9671 1059.39 64.0782 1059.54 64.1306C1059.6 64.1518 1059.67 64.1602 1059.74 64.1554C1059.84 64.1527 1059.93 64.1317 1060.02 64.0935C1060.25 63.9817 1060.47 63.8577 1060.68 63.7219C1061.31 63.3564 1061.91 62.9422 1062.48 62.4832H1058.49L1059.13 63.7219ZM1057.84 61.2446H1063.83C1064.21 60.8581 1064.57 60.4441 1064.89 60.006H1057.2L1057.84 61.2446ZM1056.57 58.7673H1065.77C1066.03 58.3696 1066.25 57.9559 1066.45 57.5287H1055.92L1056.57 58.7673ZM1055.28 56.29H1067C1067.16 55.8857 1067.3 55.4721 1067.42 55.0514H1054.64L1055.28 56.29ZM1053.99 53.8127H1067.73C1067.8 53.404 1067.86 52.9952 1067.9 52.5741H1053.36L1053.99 53.8127ZM1060.63 38.1563C1060.56 38.1131 1060.48 38.0852 1060.4 38.0745C1060.32 38.0638 1060.24 38.0706 1060.16 38.0944C1060.08 38.1127 1060 38.1475 1059.94 38.1965C1059.87 38.2456 1059.82 38.3078 1059.78 38.3793L1059.44 38.9491H1061.83C1061.45 38.6635 1061.05 38.3989 1060.63 38.1563ZM1063.33 40.1877H1058.72L1058.01 41.4263H1064.51C1064.14 40.9897 1063.75 40.5761 1063.33 40.1877ZM1065.44 42.665H1057.27L1056.56 43.9036H1066.19C1065.97 43.4741 1065.72 43.0603 1065.44 42.665ZM1066.79 45.1423H1055.84L1055.12 46.3809H1067.27C1067.13 45.9592 1066.97 45.5456 1066.79 45.1423ZM1067.62 47.6195H1054.39L1053.67 48.8582H1067.84C1067.79 48.4412 1067.72 48.0275 1067.62 47.6195ZM1067.96 50.0968H1052.95L1052.65 50.6047C1052.6 50.6941 1052.57 50.796 1052.57 50.9003C1052.57 51.0046 1052.59 51.1076 1052.64 51.1992L1052.72 51.3355H1067.99C1068 51.2116 1068 51.0754 1068 50.9515C1068 50.6666 1067.99 50.3817 1067.96 50.0968Z" fill="white"/>
<path d="M1044.54 38.407C1044.31 37.9767 1043.78 37.8099 1043.36 38.0607C1040.06 40.0461 1037.6 43.182 1036.45 46.8808C1035.22 50.861 1035.62 55.1669 1037.57 58.8512C1039.51 62.5356 1042.84 65.2967 1046.82 66.5271C1050.52 67.6705 1054.5 67.4049 1058 65.801C1058.44 65.5985 1058.61 65.0632 1058.38 64.6329L1051.46 51.52L1044.54 38.407Z" fill="white"/>
</g>
<path d="M1093.91 52.9909C1093.6 54.0949 1093.11 55.0069 1092.44 55.7269C1091.77 56.4309 1090.97 56.9509 1090.04 57.2869C1089.11 57.6069 1088.09 57.7669 1086.97 57.7669C1085.37 57.7669 1083.99 57.4469 1082.82 56.8069C1081.65 56.1509 1080.75 55.2149 1080.13 53.9989C1079.51 52.7829 1079.19 51.3189 1079.19 49.6069C1079.19 47.8949 1079.51 46.4309 1080.13 45.2149C1080.75 43.9989 1081.65 43.0709 1082.82 42.4309C1083.99 41.7749 1085.36 41.4469 1086.95 41.4469C1088.05 41.4469 1089.07 41.6069 1089.99 41.9269C1090.92 42.2309 1091.71 42.7029 1092.35 43.3429C1092.99 43.9829 1093.44 44.8069 1093.71 45.8149L1090.09 47.2789C1089.87 46.2869 1089.5 45.6069 1088.99 45.2389C1088.49 44.8709 1087.86 44.6869 1087.09 44.6869C1086.34 44.6869 1085.68 44.8709 1085.12 45.2389C1084.58 45.6069 1084.15 46.1589 1083.85 46.8949C1083.56 47.6149 1083.42 48.5189 1083.42 49.6069C1083.42 50.6789 1083.55 51.5829 1083.83 52.3189C1084.1 53.0549 1084.51 53.6069 1085.05 53.9749C1085.61 54.3429 1086.3 54.5269 1087.11 54.5269C1087.88 54.5269 1088.53 54.3189 1089.06 53.9029C1089.6 53.4709 1089.97 52.8149 1090.16 51.9349L1093.91 52.9909ZM1101.77 57.7669C1100.44 57.7669 1099.29 57.5189 1098.31 57.0229C1097.35 56.5269 1096.61 55.8149 1096.08 54.8869C1095.55 53.9589 1095.29 52.8389 1095.29 51.5269C1095.29 50.2149 1095.55 49.0949 1096.08 48.1669C1096.61 47.2389 1097.35 46.5269 1098.29 46.0309C1099.25 45.5349 1100.35 45.2869 1101.58 45.2869C1102.84 45.2869 1103.91 45.5349 1104.79 46.0309C1105.69 46.5109 1106.37 47.1829 1106.83 48.0469C1107.3 48.8949 1107.53 49.8709 1107.53 50.9749C1107.53 51.2629 1107.52 51.5509 1107.51 51.8389C1107.49 52.1269 1107.47 52.3669 1107.43 52.5589H1097.93V50.3749H1105.63L1103.69 51.1189C1103.69 50.1589 1103.51 49.4229 1103.16 48.9109C1102.83 48.3989 1102.3 48.1429 1101.58 48.1429C1101.07 48.1429 1100.63 48.2629 1100.26 48.5029C1099.91 48.7429 1099.63 49.1189 1099.44 49.6309C1099.27 50.1429 1099.18 50.7989 1099.18 51.5989C1099.18 52.3829 1099.28 53.0229 1099.49 53.5189C1099.7 53.9989 1099.99 54.3509 1100.38 54.5749C1100.76 54.7829 1101.23 54.8869 1101.77 54.8869C1102.38 54.8869 1102.86 54.7669 1103.21 54.5269C1103.58 54.2869 1103.85 53.9509 1104.03 53.5189L1107.29 54.5989C1107.07 55.2869 1106.67 55.8709 1106.11 56.3509C1105.57 56.8149 1104.91 57.1669 1104.15 57.4069C1103.39 57.6469 1102.6 57.7669 1101.77 57.7669ZM1109.81 57.5269V45.5269H1113.46L1113.58 47.8549C1113.97 47.0069 1114.5 46.3669 1115.19 45.9349C1115.89 45.5029 1116.7 45.2869 1117.61 45.2869C1118.51 45.2869 1119.29 45.4869 1119.94 45.8869C1120.6 46.2869 1121.09 46.8789 1121.41 47.6629C1121.66 47.1349 1121.99 46.6949 1122.39 46.3429C1122.81 45.9909 1123.28 45.7269 1123.81 45.5509C1124.33 45.3749 1124.88 45.2869 1125.44 45.2869C1126.24 45.2869 1126.94 45.4469 1127.55 45.7669C1128.16 46.0709 1128.64 46.5429 1128.99 47.1829C1129.36 47.8069 1129.54 48.5909 1129.54 49.5349V57.5269H1125.46V50.4709C1125.46 49.7029 1125.31 49.1669 1125.01 48.8629C1124.72 48.5589 1124.33 48.4069 1123.83 48.4069C1123.43 48.4069 1123.06 48.5109 1122.73 48.7189C1122.41 48.9109 1122.16 49.2069 1121.98 49.6069C1121.81 50.0069 1121.72 50.5109 1121.72 51.1189V57.5269H1117.64V50.4709C1117.64 49.7029 1117.49 49.1669 1117.18 48.8629C1116.88 48.5589 1116.49 48.4069 1116.01 48.4069C1115.64 48.4069 1115.29 48.5029 1114.95 48.6949C1114.63 48.8869 1114.37 49.1909 1114.18 49.6069C1113.99 50.0069 1113.89 50.5349 1113.89 51.1909V57.5269H1109.81ZM1138.26 57.7669C1136.93 57.7669 1135.78 57.5189 1134.81 57.0229C1133.85 56.5269 1133.1 55.8149 1132.57 54.8869C1132.05 53.9589 1131.78 52.8389 1131.78 51.5269C1131.78 50.2149 1132.05 49.0949 1132.57 48.1669C1133.1 47.2389 1133.84 46.5269 1134.78 46.0309C1135.74 45.5349 1136.84 45.2869 1138.07 45.2869C1139.33 45.2869 1140.41 45.5349 1141.29 46.0309C1142.18 46.5109 1142.86 47.1829 1143.33 48.0469C1143.79 48.8949 1144.02 49.8709 1144.02 50.9749C1144.02 51.2629 1144.01 51.5509 1144 51.8389C1143.98 52.1269 1143.96 52.3669 1143.93 52.5589H1134.42V50.3749H1142.13L1140.18 51.1189C1140.18 50.1589 1140.01 49.4229 1139.65 48.9109C1139.32 48.3989 1138.79 48.1429 1138.07 48.1429C1137.56 48.1429 1137.12 48.2629 1136.75 48.5029C1136.4 48.7429 1136.13 49.1189 1135.93 49.6309C1135.76 50.1429 1135.67 50.7989 1135.67 51.5989C1135.67 52.3829 1135.77 53.0229 1135.98 53.5189C1136.19 53.9989 1136.49 54.3509 1136.87 54.5749C1137.25 54.7829 1137.72 54.8869 1138.26 54.8869C1138.87 54.8869 1139.35 54.7669 1139.7 54.5269C1140.07 54.2869 1140.34 53.9509 1140.52 53.5189L1143.78 54.5989C1143.56 55.2869 1143.17 55.8709 1142.61 56.3509C1142.06 56.8149 1141.41 57.1669 1140.64 57.4069C1139.89 57.6469 1139.09 57.7669 1138.26 57.7669ZM1146.31 57.5269V45.5269H1149.95L1150.17 49.6549L1149.71 49.1989C1149.87 48.3349 1150.15 47.6149 1150.55 47.0389C1150.97 46.4629 1151.48 46.0309 1152.09 45.7429C1152.71 45.4389 1153.41 45.2869 1154.18 45.2869C1155.01 45.2869 1155.73 45.4469 1156.34 45.7669C1156.96 46.0869 1157.45 46.5589 1157.8 47.1829C1158.15 47.8069 1158.33 48.5909 1158.33 49.5349V57.5269H1154.25V50.6149C1154.25 49.7829 1154.09 49.2069 1153.77 48.8869C1153.45 48.5669 1153.04 48.4069 1152.55 48.4069C1152.16 48.4069 1151.8 48.5029 1151.47 48.6949C1151.13 48.8709 1150.87 49.1589 1150.67 49.5589C1150.48 49.9589 1150.39 50.4949 1150.39 51.1669V57.5269H1146.31ZM1166.13 41.7109V53.2549C1166.13 53.8309 1166.27 54.2469 1166.54 54.5029C1166.83 54.7429 1167.22 54.8629 1167.72 54.8629C1168.1 54.8629 1168.43 54.8229 1168.7 54.7429C1168.99 54.6469 1169.25 54.5109 1169.47 54.3349L1169.9 56.8549C1169.5 57.1429 1169 57.3669 1168.39 57.5269C1167.78 57.6869 1167.16 57.7669 1166.52 57.7669C1165.61 57.7669 1164.81 57.6389 1164.14 57.3829C1163.49 57.1269 1162.97 56.7189 1162.61 56.1589C1162.25 55.5989 1162.07 54.8549 1162.05 53.9269V42.8389L1166.13 41.7109ZM1169.71 45.5269V48.4309H1159.99V45.5269H1169.71Z" fill="white"/>
</g>
</g>
<rect width="1173" height="93" fill="url(#paint0_linear_63_687)"/>
<defs>
<filter id="filter0_d_63_687" x="58.7677" y="36.7951" width="113.766" height="35.1989" filterUnits="userSpaceOnUse" color-interpolation-filters="sRGB">
<feFlood flood-opacity="0" result="BackgroundImageFix"/>
<feColorMatrix in="SourceAlpha" type="matrix" values="0 0 0 0 0 0 0 0 0 0 0 0 0 0 0 0 0 0 127 0" result="hardAlpha"/>
<feOffset dy="4"/>
<feGaussianBlur stdDeviation="2"/>
<feComposite in2="hardAlpha" operator="out"/>
<feColorMatrix type="matrix" values="0 0 0 0 0 0 0 0 0 0 0 0 0 0 0 0 0 0 0.25 0"/>
<feBlend mode="normal" in2="BackgroundImageFix" result="effect1_dropShadow_63_687"/>
<feBlend mode="normal" in="SourceGraphic" in2="effect1_dropShadow_63_687" result="shape"/>
</filter>
<filter id="filter1_d_63_687" x="627.922" y="28.5269" width="154.513" height="49.2903" filterUnits="userSpaceOnUse" color-interpolation-filters="sRGB">
<feFlood flood-opacity="0" result="BackgroundImageFix"/>
<feColorMatrix in="SourceAlpha" type="matrix" values="0 0 0 0 0 0 0 0 0 0 0 0 0 0 0 0 0 0 127 0" result="hardAlpha"/>
<feOffset dy="4"/>
<feGaussianBlur stdDeviation="2"/>
<feComposite in2="hardAlpha" operator="out"/>
<feColorMatrix type="matrix" values="0 0 0 0 0 0 0 0 0 0 0 0 0 0 0 0 0 0 0.25 0"/>
<feBlend mode="normal" in2="BackgroundImageFix" result="effect1_dropShadow_63_687"/>
<feBlend mode="normal" in="SourceGraphic" in2="effect1_dropShadow_63_687" result="shape"/>
</filter>
<filter id="filter2_d_63_687" x="865.532" y="36.7951" width="113.766" height="35.1989" filterUnits="userSpaceOnUse" color-interpolation-filters="sRGB">
<feFlood flood-opacity="0" result="BackgroundImageFix"/>
<feColorMatrix in="SourceAlpha" type="matrix" values="0 0 0 0 0 0 0 0 0 0 0 0 0 0 0 0 0 0 127 0" result="hardAlpha"/>
<feOffset dy="4"/>
<feGaussianBlur stdDeviation="2"/>
<feComposite in2="hardAlpha" operator="out"/>
<feColorMatrix type="matrix" values="0 0 0 0 0 0 0 0 0 0 0 0 0 0 0 0 0 0 0.25 0"/>
<feBlend mode="normal" in2="BackgroundImageFix" result="effect1_dropShadow_63_687"/>
<feBlend mode="normal" in="SourceGraphic" in2="effect1_dropShadow_63_687" result="shape"/>
</filter>
<linearGradient id="paint0_linear_63_687" x1="0" y1="93" x2="1148" y2="92.9998" gradientUnits="userSpaceOnUse">
<stop stop-color="#0A2640"/>
<stop offset="0.322917" stop-color="#0A2640" stop-opacity="0.109375"/>
<stop offset="0.744792" stop-color="#0A2640" stop-opacity="0"/>
<stop offset="1" stop-color="#0A2640"/>
</linearGradient>
<clipPath id="clip0_63_687">
<rect width="1120" height="48" fill="white" transform="translate(27 33)"/>
</clipPath>
<clipPath id="clip1_63_687">
<rect width="146.513" height="41.2903" fill="white" transform="translate(228.18 28.5269)"/>
</clipPath>
<clipPath id="clip2_63_687">
<rect width="32.745" height="34.8351" fill="white" transform="translate(227.988 32.6807)"/>
</clipPath>
<clipPath id="clip3_63_687">
<rect width="146.513" height="41.2903" fill="white" transform="translate(631.922 28.5269)"/>
</clipPath>
<clipPath id="clip4_63_687">
<rect width="32.745" height="34.8351" fill="white" transform="translate(631.731 32.6807)"/>
</clipPath>
<clipPath id="clip5_63_687">
<rect width="146.513" height="41.2903" fill="white" transform="translate(1035.67 28.5269)"/>
</clipPath>
<clipPath id="clip6_63_687">
<rect width="32.745" height="34.8351" fill="white" transform="translate(1035.47 32.6807)"/>
</clipPath>
</defs>
</svg>
